<?xml version="1.0" encoding="iso-8859-1"?>
<!-- Generator: Adobe Illustrator 18.1.1, SVG Export Plug-In . SVG Version: 6.00 Build 0)  -->
<svg version="1.1" xmlns="http://www.w3.org/2000/svg" xmlns:xlink="http://www.w3.org/1999/xlink" x="0px" y="0px"
	 viewBox="0 0 203 203" style="enable-background:new 0 0 203 203;" xml:space="preserve">
<g id="bus1">
	<g>
		<path style="fill:#FFFFFF;stroke:#000000;stroke-width:3;stroke-miterlimit:10;" d="M181.5,201.5h-160c-11,0-20-9-20-20v-160
			c0-11,9-20,20-20h160c11,0,20,9,20,20v160C201.5,192.5,192.5,201.5,181.5,201.5z"/>
		<g>
			<path style="stroke:#000000;stroke-width:2;stroke-miterlimit:10;" d="M61.697,165.8H50.511c-1.834,0-3.335-1.501-3.335-3.335
				v-15.404c0-1.834,1.501-3.335,3.335-3.335h11.185c1.834,0,3.335,1.501,3.335,3.335v15.404
				C65.032,164.3,63.531,165.8,61.697,165.8z"/>
			<path style="stroke:#000000;stroke-width:2;stroke-miterlimit:10;" d="M152.096,165.8h-11.185c-1.834,0-3.335-1.501-3.335-3.335
				v-15.404c0-1.834,1.501-3.335,3.335-3.335h11.185c1.834,0,3.335,1.501,3.335,3.335v15.404
				C155.431,164.3,153.93,165.8,152.096,165.8z"/>
			<path style="fill:#CCCCCC;stroke:#000000;stroke-width:2;stroke-miterlimit:10;" d="M166.411,86.985h-8.661
				c-0.917,0-1.667-0.75-1.667-1.667V65.859c0-0.917,0.75-1.667,1.667-1.667h8.661c0.917,0,1.667,0.75,1.667,1.667v19.458
				C168.079,86.234,167.329,86.985,166.411,86.985z"/>
			<path style="fill:#CCCCCC;stroke:#000000;stroke-width:2;stroke-miterlimit:10;" d="M45.249,86.985h-8.661
				c-0.917,0-1.667-0.75-1.667-1.667V65.859c0-0.917,0.75-1.667,1.667-1.667h8.661c0.917,0,1.667,0.75,1.667,1.667v19.458
				C46.917,86.234,46.167,86.985,45.249,86.985z"/>
			<path style="fill:#CCCCCC;stroke:#000000;stroke-width:2;stroke-miterlimit:10;" d="M145.406,154.763H57.594
				c-9.171,0-16.675-7.504-16.675-16.675V53.874c0-9.171,7.504-16.675,16.675-16.675h87.813c9.171,0,16.675,7.504,16.675,16.675
				v84.213C162.081,147.26,154.577,154.763,145.406,154.763z"/>
			<path style="fill:#FFFFFF;stroke:#000000;stroke-width:2;stroke-miterlimit:10;" d="M137.315,115.04h-71.63
				c-4.586,0-8.337-3.752-8.337-8.337V68.195c0-4.586,3.752-8.337,8.337-8.337h71.63c4.586,0,8.337,3.752,8.337,8.337v38.508
				C145.652,111.288,141.9,115.04,137.315,115.04z"/>
			<path style="fill:#FFFFFF;stroke:#000000;stroke-width:2;stroke-miterlimit:10;" d="M139.72,54.595H63.28
				c-0.917,0-1.667-0.75-1.667-1.667v-5.062c0-0.917,0.75-1.667,1.667-1.667h76.44c0.917,0,1.667,0.75,1.667,1.667v5.062
				C141.388,53.844,140.637,54.595,139.72,54.595z"/>
			<circle style="fill:#FFFFFF;stroke:#000000;stroke-width:2;stroke-miterlimit:10;" cx="64.766" cy="134.035" r="8.663"/>
			<circle style="fill:#FFFFFF;stroke:#000000;stroke-width:2;stroke-miterlimit:10;" cx="137.302" cy="134.035" r="8.663"/>
		</g>
	</g>
</g>
<g id="Layer_1">
</g>
</svg>
