<?xml version="1.0" encoding="iso-8859-1"?>
<!-- Generator: Adobe Illustrator 18.1.1, SVG Export Plug-In . SVG Version: 6.00 Build 0)  -->
<svg version="1.1" xmlns="http://www.w3.org/2000/svg" xmlns:xlink="http://www.w3.org/1999/xlink" x="0px" y="0px"
	 viewBox="0 0 203 203" style="enable-background:new 0 0 203 203;" xml:space="preserve">
<g id="icon1">
	<g>
		<path style="fill:#FFFFFF;stroke:#000000;stroke-width:3;stroke-miterlimit:10;" d="M181.5,201.5h-160c-11,0-20-9-20-20v-160
			c0-11,9-20,20-20h160c11,0,20,9,20,20v160C201.5,192.5,192.5,201.5,181.5,201.5z"/>
		<path style="fill:#CCCCCC;stroke:#000000;stroke-width:2;stroke-miterlimit:10;" d="M92.235,115.751l-7.994-25.442
			c-1.074-3.417-4.682-5.313-8.019-4.214c-0.249,0.082-0.487,0.635-0.719,0.745C73.955,85.421,71.92,85,69.691,85h-2.733
			c8.794-3,15.213-11.443,15.213-21.311c0-12.014-9.512-21.98-21.245-21.98S39.682,51.787,39.682,63.802
			C39.682,73.67,46.1,82,54.894,85h-2.733c-2.224,0-4.255,0.417-5.802,1.831c-0.201-0.092-0.408-0.402-0.622-0.474
			c-3.331-1.119-6.95,0.643-8.043,4.053l-8.95,25.338c-1.093,3.411,0.256,7.071,3.256,8.19v-0.005c4,1.119,7.053-0.758,8.145-4.169
			l1.855-5.47v16.592c0,0.359,0.027,0.712,0.068,1.061c-0.04,0.313-0.068,0.629-0.068,0.953v37.492c0,4.048,3.547,7.359,7.5,7.359
			s7.5-3.312,7.5-7.359V140h6v30.391c0,4.048,3.547,7.359,7.5,7.359s7.5-3.312,7.5-7.359v-37.492c0-0.323-0.028-0.64-0.068-0.953
			c0.041-0.349,0.068-0.702,0.068-1.061v-16.448l1.885,5.312c1.074,3.417,4.79,5.313,8.127,4.214
			C91.349,122.863,93.309,119.168,92.235,115.751z"/>
		<path style="fill:#CCCCCC;stroke:#000000;stroke-width:2;stroke-miterlimit:10;" d="M159,114.437l2.029,5.312
			c1.074,3.417,4.862,5.313,8.199,4.214c3.337-1.099,5.227-4.795,4.154-8.211l-7.923-25.442c-1.074-3.417-4.647-5.313-7.984-4.214
			c-0.249,0.082-0.469,0.635-0.701,0.745c-1.548-1.42-3.565-1.841-5.794-1.841h-2.733c8.794-3,15.213-11.443,15.213-21.311
			c0-12.014-9.512-21.98-21.245-21.98c-11.733,0-21.245,10.079-21.245,22.093c0,9.868,6.419,18.198,15.213,21.198h-2.733
			c-2.224,0-4.255,0.417-5.802,1.831c-0.201-0.092-0.408-0.402-0.622-0.474c-3.331-1.119-6.95,0.643-8.043,4.053l-8.595,25.338
			c-1.093,3.411-0.388,7.071,3.612,8.19v-0.005c3,1.119,6.553-0.758,7.645-4.169l1.355-5.47v16.438L114.527,154H123v16.391
			c0,4.048,3.547,7.359,7.5,7.359s7.5-3.312,7.5-7.359V154h6v16.391c0,4.048,3.547,7.359,7.5,7.359s7.5-3.312,7.5-7.359V154h10.696
			l-10.148-22.512c0.004-0.095-0.549-0.507-0.549-0.602V114.437z"/>
	</g>
</g>
<g id="Layer_1">
</g>
</svg>
