<?xml version="1.0" encoding="iso-8859-1"?>
<!-- Generator: Adobe Illustrator 18.1.1, SVG Export Plug-In . SVG Version: 6.00 Build 0)  -->
<svg version="1.1" xmlns="http://www.w3.org/2000/svg" xmlns:xlink="http://www.w3.org/1999/xlink" x="0px" y="0px"
	 viewBox="0 0 203 203" style="enable-background:new 0 0 203 203;" xml:space="preserve">
<g id="icon4">
	<g>
		<path style="fill:#FFFFFF;stroke:#000000;stroke-width:3;stroke-miterlimit:10;" d="M181.5,201.5h-160c-11,0-20-9-20-20v-160
			c0-11,9-20,20-20h160c11,0,20,9,20,20v160C201.5,192.5,192.5,201.5,181.5,201.5z"/>
		<g>
			<path style="fill:#CCCCCC;stroke:#000000;stroke-width:2;stroke-miterlimit:10;" d="M60.215,119.417l-5.874-18.694
				c-0.789-2.511-3.44-3.904-5.892-3.096c-0.183,0.06-0.358,0.556-0.528,0.637C46.783,97.22,45.288,97,43.65,97h-2.008
				c6.462-3,11.178-8.498,11.178-15.749c0-8.828-6.989-16.195-15.61-16.195s-15.61,7.473-15.61,16.301
				C21.599,88.608,26.315,94,32.777,97h-2.008c-1.634,0-3.126,0.217-4.263,1.256c-0.148-0.068-0.3-0.34-0.457-0.393
				c-2.447-0.822-5.107,0.45-5.91,2.956l-6.554,18.607C12.782,121.932,14,124.61,16,125.432v-0.004c3,0.822,5.008-0.557,5.811-3.063
				L23,118.345v12.191c0,0.264,0.02,0.523,0.05,0.78c-0.029,0.23-0.05,0.462-0.05,0.7v27.548c0,2.974,3.096,5.407,6,5.407
				s6-2.433,6-5.407V137h4v22.565c0,2.974,2.596,5.407,5.5,5.407s5.5-2.433,5.5-5.407v-27.548c0-0.238-0.02-0.47-0.05-0.7
				c0.03-0.256,0.05-0.516,0.05-0.78v-12.086l1.262,3.903c0.789,2.511,3.458,3.904,5.91,3.096
				C59.625,124.643,61.004,121.927,60.215,119.417z"/>
			<path style="fill:#CCCCCC;stroke:#000000;stroke-width:2;stroke-miterlimit:10;" d="M179,118.451l1.127,3.903
				c0.789,2.511,3.391,3.904,5.843,3.096c2.452-0.808,3.75-3.523,2.961-6.034l-5.867-18.694c-0.789-2.511-3.437-3.904-5.889-3.096
				c-0.183,0.06-0.356,0.556-0.527,0.637C175.51,97.22,174.017,97,172.379,97h-2.008c6.462-3,11.178-8.498,11.178-15.749
				c0-8.828-6.989-16.195-15.61-16.195s-15.61,7.473-15.61,16.301c0,7.251,4.716,12.643,11.178,15.643h-2.008
				c-1.634,0-3.126,0.217-4.263,1.256c-0.148-0.068-0.3-0.34-0.457-0.393c-2.447-0.822-5.107,0.45-5.91,2.956l-6.419,18.607
				c-0.803,2.506-0.45,5.184,2.55,6.007v-0.004c3,0.822,5.008-0.557,5.811-3.063l1.189-4.019v12.078L145.594,148H152v11.565
				c0,2.974,2.596,5.407,5.5,5.407s5.5-2.433,5.5-5.407V148h4v11.565c0,2.974,3.096,5.407,6,5.407s6-2.433,6-5.407V148h7.132
				l-7.092-16.781c0.003-0.07-0.039-0.612-0.039-0.682V118.451z"/>
			<path style="fill:#CCCCCC;stroke:#000000;stroke-width:2;stroke-miterlimit:10;" d="M100.215,130.417l-5.874-18.694
				c-0.789-2.511-3.44-3.904-5.892-3.096c-0.183,0.06-0.358,0.556-0.528,0.637C86.783,108.22,85.288,108,83.65,108h-2.008
				c6.462-3,11.178-8.498,11.178-15.749c0-8.828-6.989-16.195-15.61-16.195s-15.61,7.473-15.61,16.301
				c0,7.251,4.716,12.643,11.178,15.643h-2.008c-1.634,0-3.126,0.217-4.263,1.256c-0.148-0.068-0.3-0.34-0.457-0.393
				c-2.447-0.822-5.107,0.45-5.91,2.956l-6.554,18.607C52.782,132.932,54,135.61,56,136.432v-0.004c3,0.822,5.008-0.557,5.811-3.063
				L63,129.345v12.191c0,0.264,0.02,0.523,0.05,0.78c-0.029,0.23-0.05,0.462-0.05,0.7v27.548c0,2.974,3.096,5.407,6,5.407
				s6-2.433,6-5.407V148h4v22.565c0,2.974,2.596,5.407,5.5,5.407s5.5-2.433,5.5-5.407v-27.548c0-0.238-0.02-0.47-0.05-0.7
				c0.03-0.256,0.05-0.516,0.05-0.78v-12.086l1.262,3.903c0.789,2.511,3.458,3.904,5.91,3.096
				C99.625,135.643,101.004,132.927,100.215,130.417z"/>
			<path style="fill:#CCCCCC;stroke:#000000;stroke-width:2;stroke-miterlimit:10;" d="M140,129.451l1.127,3.903
				c0.789,2.511,3.391,3.904,5.843,3.096c2.452-0.808,3.75-3.523,2.961-6.034l-5.867-18.694c-0.789-2.511-3.437-3.904-5.889-3.096
				c-0.183,0.06-0.356,0.556-0.527,0.637c-1.138-1.043-2.631-1.263-4.269-1.263h-2.008c6.462-3,11.178-8.498,11.178-15.749
				c0-8.828-6.989-16.195-15.61-16.195s-15.61,7.473-15.61,16.301c0,7.251,4.716,12.643,11.178,15.643h-2.008
				c-1.634,0-3.126,0.217-4.263,1.256c-0.148-0.068-0.3-0.34-0.457-0.393c-2.447-0.822-5.107,0.45-5.91,2.956l-6.419,18.607
				c-0.803,2.506-0.45,5.184,2.55,6.007v-0.004c3,0.822,5.008-0.557,5.811-3.063l1.189-4.019v12.078L106.594,159H113v11.565
				c0,2.974,2.596,5.407,5.5,5.407s5.5-2.433,5.5-5.407V159h4v11.565c0,2.974,3.096,5.407,6,5.407s6-2.433,6-5.407V159h7.132
				l-7.092-16.781c0.003-0.07-0.039-0.612-0.039-0.682V129.451z"/>
		</g>
	</g>
</g>
<g id="Layer_1">
</g>
</svg>
