<svg xmlns="http://www.w3.org/2000/svg" style="" viewBox="0 0 203 203" x="0px" y="0px" version="1.1" xmlns:xml="http://www.w3.org/XML/1998/namespace" xml:space="preserve">

	
		<g><path style="fill: #ffffff; stroke: #000000; stroke-miterlimit: 10; stroke-width: 3;" transform="matrix(-1 0 0 1 203 0)" d="M 181.5 201.5 h -160 c -11 0 -20 -9 -20 -20 v -160 c 0 -11 9 -20 20 -20 h 160 c 11 0 20 9 20 20 v 160 C 201.5 192.5 192.5 201.5 181.5 201.5 Z" /><path style="fill: #cccccc; stroke: #000000; stroke-miterlimit: 10; stroke-width: 2;" transform="matrix(-1 0 0 1 215.811 -4.18906)" d="M 90.938 108.48 l -9.146 -28.426 c -1.228 -3.818 -5.357 -5.936 -9.174 -4.708 c -0.285 0.092 -0.557 0.649 -0.823 0.771 C 70.024 74.531 67.696 74 65.146 74 H 62.02 c 10.061 -3 17.404 -12.725 17.404 -23.75 c 0 -13.424 -10.882 -24.528 -24.306 -24.528 S 30.813 36.938 30.813 50.361 C 30.813 61.387 38.156 71 48.217 74 h -3.127 c -2.545 0 -4.868 0.527 -6.637 2.107 c -0.23 -0.103 -0.467 -0.419 -0.712 -0.499 c -3.811 -1.25 -7.951 0.733 -9.202 4.544 l -9.752 28.317 c -1.25 3.811 0.213 7.908 4.213 9.158 v -0.006 c 4 1.25 7.848 -0.847 9.099 -4.658 L 34 106.851 v 18.538 c 0 0.402 0.031 0.796 0.078 1.186 c -0.046 0.349 -0.078 0.703 -0.078 1.064 v 41.889 c 0 4.522 3.978 8.222 8.5 8.222 s 8.5 -3.7 8.5 -8.222 V 136 h 7 v 33.528 c 0 4.522 3.978 8.222 8.5 8.222 s 8.5 -3.7 8.5 -8.222 v -41.889 c 0 -0.361 -0.032 -0.715 -0.078 -1.064 c 0.047 -0.39 0.078 -0.784 0.078 -1.186 v -18.377 l 1.982 5.935 c 1.228 3.818 5.393 5.936 9.211 4.708 C 90.011 116.426 92.166 112.297 90.938 108.48 Z" /><g transform="matrix(-1 0 0 1 215.567 -4.43343)">
			<polygon style="stroke: #000000; stroke-miterlimit: 10; stroke-width: 2;" points="61.667,74.667 55.18,86.155 48.371,74.735" />
			<polygon style="stroke: #000000; stroke-miterlimit: 10; stroke-width: 2;" points="55.87,118.526 49.726,112.083 55.348,80.776 60.829,112.232" />
		</g></g>
		
		
		
	

<g id="Layer_1">
</g>
<path style="fill: #cccccc; stroke: #000000; stroke-miterlimit: 10; stroke-width: 2;" transform="matrix(-1 0 0 1 96.5085 -8.72298)" d="M 90.938 108.48 l -9.146 -28.426 c -1.228 -3.818 -5.357 -5.936 -9.174 -4.708 c -0.285 0.092 -0.557 0.649 -0.823 0.771 C 70.024 74.531 67.696 74 65.146 74 H 62.02 c 10.061 -3 17.404 -12.725 17.404 -23.75 c 0 -13.424 -10.882 -24.528 -24.306 -24.528 S 30.813 36.938 30.813 50.361 C 30.813 61.387 38.156 71 48.217 74 h -3.127 c -2.545 0 -4.868 0.527 -6.637 2.107 c -0.23 -0.103 -0.467 -0.419 -0.712 -0.499 c -3.811 -1.25 -7.951 0.733 -9.202 4.544 l -9.752 28.317 c -1.25 3.811 0.213 7.908 4.213 9.158 v -0.006 c 4 1.25 7.848 -0.847 9.099 -4.658 L 34 106.851 v 18.538 c 0 0.402 0.031 0.796 0.078 1.186 c -0.046 0.349 -0.078 0.703 -0.078 1.064 v 41.889 c 0 4.522 3.978 8.222 8.5 8.222 s 8.5 -3.7 8.5 -8.222 V 136 h 7 v 33.528 c 0 4.522 3.978 8.222 8.5 8.222 s 8.5 -3.7 8.5 -8.222 v -41.889 c 0 -0.361 -0.032 -0.715 -0.078 -1.064 c 0.047 -0.39 0.078 -0.784 0.078 -1.186 v -18.377 l 1.982 5.935 c 1.228 3.818 5.393 5.936 9.211 4.708 C 90.011 116.426 92.166 112.297 90.938 108.48 Z" /><g transform="matrix(-1 0 0 1 96.5087 -9.94472)">
			<polygon style="stroke: #000000; stroke-miterlimit: 10; stroke-width: 2;" points="61.667,74.667 55.18,86.155 48.371,74.735" />
			<polygon style="stroke: #000000; stroke-miterlimit: 10; stroke-width: 2;" points="55.87,118.526 49.726,112.083 55.348,80.776 60.829,112.232" />
		</g><path style="fill: #cccccc; stroke: #000000; stroke-miterlimit: 10; stroke-width: 2;" transform="matrix(-1 0 0 1 156.242 18.7779)" d="M 90.938 108.48 l -9.146 -28.426 c -1.228 -3.818 -5.357 -5.936 -9.174 -4.708 c -0.285 0.092 -0.557 0.649 -0.823 0.771 C 70.024 74.531 67.696 74 65.146 74 H 62.02 c 10.061 -3 17.404 -12.725 17.404 -23.75 c 0 -13.424 -10.882 -24.528 -24.306 -24.528 S 30.813 36.938 30.813 50.361 C 30.813 61.387 38.156 71 48.217 74 h -3.127 c -2.545 0 -4.868 0.527 -6.637 2.107 c -0.23 -0.103 -0.467 -0.419 -0.712 -0.499 c -3.811 -1.25 -7.951 0.733 -9.202 4.544 l -9.752 28.317 c -1.25 3.811 0.213 7.908 4.213 9.158 v -0.006 c 4 1.25 7.848 -0.847 9.099 -4.658 L 34 106.851 v 18.538 c 0 0.402 0.031 0.796 0.078 1.186 c -0.046 0.349 -0.078 0.703 -0.078 1.064 v 41.889 c 0 4.522 3.978 8.222 8.5 8.222 s 8.5 -3.7 8.5 -8.222 V 136 h 7 v 33.528 c 0 4.522 3.978 8.222 8.5 8.222 s 8.5 -3.7 8.5 -8.222 v -41.889 c 0 -0.361 -0.032 -0.715 -0.078 -1.064 c 0.047 -0.39 0.078 -0.784 0.078 -1.186 v -18.377 l 1.982 5.935 c 1.228 3.818 5.393 5.936 9.211 4.708 C 90.011 116.426 92.166 112.297 90.938 108.48 Z" /><g transform="matrix(-1 0 0 1 156.01 18.0333)">
			<polygon style="stroke: #000000; stroke-miterlimit: 10; stroke-width: 2;" points="61.667,74.667 55.18,86.155 48.371,74.735" />
			<polygon style="stroke: #000000; stroke-miterlimit: 10; stroke-width: 2;" points="55.87,118.526 49.726,112.083 55.348,80.776 60.829,112.232" />
		</g></svg>