<?xml version="1.0" encoding="iso-8859-1"?>
<!-- Generator: Adobe Illustrator 18.1.1, SVG Export Plug-In . SVG Version: 6.00 Build 0)  -->
<svg version="1.1" xmlns="http://www.w3.org/2000/svg" xmlns:xlink="http://www.w3.org/1999/xlink" x="0px" y="0px"
	 viewBox="0 0 203 203" style="enable-background:new 0 0 203 203;" xml:space="preserve">
<g id="icon2">
	<g>
		<path style="fill:#FFFFFF;stroke:#000000;stroke-width:3;stroke-miterlimit:10;" d="M181.5,201.5h-160c-11,0-20-9-20-20v-160
			c0-11,9-20,20-20h160c11,0,20,9,20,20v160C201.5,192.5,192.5,201.5,181.5,201.5z"/>
		<path style="fill:#CCCCCC;stroke:#000000;stroke-width:2;stroke-miterlimit:10;" d="M90.938,108.48l-9.146-28.426
			c-1.228-3.818-5.357-5.936-9.174-4.708c-0.285,0.092-0.557,0.649-0.823,0.771C70.024,74.531,67.696,74,65.146,74H62.02
			c10.061-3,17.404-12.725,17.404-23.75c0-13.424-10.882-24.528-24.306-24.528S30.813,36.938,30.813,50.361
			C30.813,61.387,38.156,71,48.217,74h-3.127c-2.545,0-4.868,0.527-6.637,2.107c-0.23-0.103-0.467-0.419-0.712-0.499
			c-3.811-1.25-7.951,0.733-9.202,4.544l-9.752,28.317c-1.25,3.811,0.213,7.908,4.213,9.158v-0.006c4,1.25,7.848-0.847,9.099-4.658
			L34,106.851v18.538c0,0.402,0.031,0.796,0.078,1.186c-0.046,0.349-0.078,0.703-0.078,1.064v41.889c0,4.522,3.978,8.222,8.5,8.222
			s8.5-3.7,8.5-8.222V136h7v33.528c0,4.522,3.978,8.222,8.5,8.222s8.5-3.7,8.5-8.222v-41.889c0-0.361-0.032-0.715-0.078-1.064
			c0.047-0.39,0.078-0.784,0.078-1.186v-18.377l1.982,5.935c1.228,3.818,5.393,5.936,9.211,4.708
			C90.011,116.426,92.166,112.297,90.938,108.48z"/>
		<g>
			<polygon style="stroke:#000000;stroke-width:2;stroke-miterlimit:10;" points="61.667,74.667 55.18,86.155 48.371,74.735 			"/>
			<polygon style="stroke:#000000;stroke-width:2;stroke-miterlimit:10;" points="55.87,118.526 49.726,112.083 55.348,80.776 
				60.829,112.232 			"/>
		</g>
		<path style="fill:#CCCCCC;stroke:#000000;stroke-width:2;stroke-miterlimit:10;" d="M168,107.012l1.982,5.935
			c1.228,3.818,5.393,5.936,9.211,4.708c3.818-1.228,5.896-5.357,4.667-9.175l-9.107-28.426c-1.228-3.818-5.337-5.936-9.155-4.708
			c-0.285,0.092-0.547,0.649-0.813,0.771c-1.771-1.586-4.089-2.117-6.64-2.117h-3.127c10.061-3,17.404-12.725,17.404-23.75
			c0-13.424-10.882-24.528-24.306-24.528s-24.306,11.215-24.306,24.639c0,11.025,7.343,20.639,17.404,23.639h-3.127
			c-2.545,0-4.868,0.527-6.637,2.107c-0.23-0.103-0.467-0.419-0.712-0.499c-3.811-1.25-7.951,0.733-9.202,4.544l-9.752,28.317
			c-1.25,3.811,0.213,7.908,4.213,9.158v-0.006c4,1.25,7.848-0.847,9.099-4.658l1.901-6.112v18.366L116.441,151H127v18.528
			c0,4.522,3.978,8.222,8.5,8.222s8.5-3.7,8.5-8.222V151h7v18.528c0,4.522,3.978,8.222,8.5,8.222s8.5-3.7,8.5-8.222V151h11.559
			l-11.27-25.045c0.004-0.106-0.289-0.459-0.289-0.566V107.012z"/>
	</g>
</g>
<g id="Layer_1">
</g>
</svg>
