<?xml version="1.0" encoding="iso-8859-1"?>
<!-- Generator: Adobe Illustrator 18.1.1, SVG Export Plug-In . SVG Version: 6.00 Build 0)  -->
<svg version="1.1" xmlns="http://www.w3.org/2000/svg" xmlns:xlink="http://www.w3.org/1999/xlink" x="0px" y="0px"
	 viewBox="0 0 203 203" style="enable-background:new 0 0 203 203;" xml:space="preserve">
<g id="icon6">
	<g>
		<path style="fill:#FFFFFF;stroke:#000000;stroke-width:3;stroke-miterlimit:10;" d="M181.5,201.5h-160c-11,0-20-9-20-20v-160
			c0-11,9-20,20-20h160c11,0,20,9,20,20v160C201.5,192.5,192.5,201.5,181.5,201.5z"/>
		<path style="fill:#CCCCCC;stroke:#000000;stroke-width:2;stroke-miterlimit:10;" d="M63,107.66l1.948,5.312
			c1.074,3.417,4.822,5.313,8.159,4.214c3.337-1.099,5.207-4.795,4.133-8.211l-7.933-25.442c-1.074-3.417-4.652-5.313-7.989-4.214
			c-0.249,0.082-0.472,0.524-0.704,0.634C59.065,78.532,57.046,78,54.817,78h-2.733c8.794-3,15.213-11.332,15.213-21.2
			c0-12.014-9.512-21.925-21.245-21.925s-21.245,9.995-21.245,22.01C24.807,66.753,31.226,75,40.02,78h-2.733
			c-2.224,0-4.255,0.528-5.802,1.942c-0.201-0.092-0.408-0.346-0.622-0.418c-3.331-1.119-6.95,0.67-8.043,4.081l-8.513,25.352
			C13.214,112.367,14,116.041,18,117.16v-0.005c3,1.119,6.553-0.758,7.645-4.169l1.355-5.47v16.438L18.364,147H27v16.613
			c0,4.048,3.547,7.359,7.5,7.359s7.5-3.312,7.5-7.359V147h6v16.613c0,4.048,3.547,7.359,7.5,7.359s7.5-3.312,7.5-7.359V147h10.533
			l-10.066-22.401c0.004-0.095-0.467-0.396-0.467-0.491V107.66z"/>
		<path style="fill:#CCCCCC;stroke:#000000;stroke-width:2;stroke-miterlimit:10;" d="M175,106.66l1.948,5.312
			c1.074,3.417,4.822,5.313,8.159,4.214c3.337-1.099,5.207-4.795,4.133-8.211l-7.933-25.442c-1.074-3.417-4.652-5.313-7.989-4.214
			c-0.249,0.082-0.472,0.524-0.704,0.634c-1.548-1.42-3.568-1.952-5.797-1.952h-2.733c8.794-3,15.213-11.332,15.213-21.2
			c0-12.014-9.512-21.925-21.245-21.925c-11.733,0-21.245,9.995-21.245,22.01c0,9.868,6.419,18.115,15.213,21.115h-2.733
			c-2.224,0-4.255,0.528-5.802,1.942c-0.201-0.092-0.408-0.346-0.622-0.418c-3.331-1.119-6.95,0.67-8.043,4.081l-8.513,25.352
			c-1.093,3.411-0.307,7.085,3.693,8.204v-0.005c3,1.119,6.553-0.758,7.645-4.169l1.355-5.47v16.438L130.364,146H139v16.613
			c0,4.048,3.547,7.359,7.5,7.359s7.5-3.312,7.5-7.359V146h6v16.613c0,4.048,3.547,7.359,7.5,7.359s7.5-3.312,7.5-7.359V146h10.533
			l-10.066-22.401c0.004-0.095-0.467-0.396-0.467-0.491V106.66z"/>
		<path style="fill:#CCCCCC;stroke:#000000;stroke-width:2;stroke-miterlimit:10;" d="M120,118.66l1.948,5.312
			c1.074,3.417,4.822,5.313,8.159,4.214c3.337-1.099,5.207-4.795,4.133-8.211l-7.933-25.442c-1.074-3.417-4.652-5.313-7.989-4.214
			c-0.249,0.082-0.472,0.524-0.704,0.634c-1.548-1.42-3.568-1.952-5.797-1.952h-2.733c8.794-3,15.213-11.332,15.213-21.2
			c0-12.014-9.512-21.925-21.245-21.925s-21.245,9.995-21.245,22.01C81.807,77.753,88.226,86,97.02,89h-2.733
			c-2.224,0-4.255,0.528-5.802,1.942c-0.201-0.092-0.408-0.346-0.622-0.418c-3.331-1.119-6.95,0.67-8.043,4.081l-8.513,25.352
			C70.214,123.367,71,127.041,75,128.16v-0.005c3,1.119,6.553-0.758,7.645-4.169l1.355-5.47v16.438L75.364,158H84v16.613
			c0,4.048,3.547,7.359,7.5,7.359s7.5-3.312,7.5-7.359V158h6v16.613c0,4.048,3.547,7.359,7.5,7.359s7.5-3.312,7.5-7.359V158h10.533
			l-10.066-22.401c0.004-0.095-0.467-0.396-0.467-0.491V118.66z"/>
	</g>
</g>
<g id="Layer_1">
</g>
</svg>
