<?xml version="1.0" encoding="iso-8859-1"?>
<!-- Generator: Adobe Illustrator 18.1.1, SVG Export Plug-In . SVG Version: 6.00 Build 0)  -->
<svg version="1.1" xmlns="http://www.w3.org/2000/svg" xmlns:xlink="http://www.w3.org/1999/xlink" x="0px" y="0px"
	 viewBox="0 0 203 203" style="enable-background:new 0 0 203 203;" xml:space="preserve">
<g id="icon3">
	<g>
		<path style="fill:#FFFFFF;stroke:#000000;stroke-width:3;stroke-miterlimit:10;" d="M181.5,201.5h-160c-11,0-20-9-20-20v-160
			c0-11,9-20,20-20h160c11,0,20,9,20,20v160C201.5,192.5,192.5,201.5,181.5,201.5z"/>
		<g>
			<path style="fill:#CCCCCC;stroke:#000000;stroke-width:2;stroke-miterlimit:10;" d="M93.466,124.024l-7.056-22.458
				c-0.948-3.016-4.133-4.69-7.079-3.72c-0.22,0.072-0.43,0.621-0.635,0.718C77.33,97.311,75.534,97,73.567,97h-2.412
				c7.762-3,13.428-10.161,13.428-18.872c0-10.605-8.396-19.432-18.753-19.432s-18.753,8.942-18.753,19.547
				c0,8.71,5.666,15.757,13.428,18.757h-2.412c-1.963,0-3.756,0.308-5.121,1.556c-0.178-0.082-0.361-0.385-0.549-0.448
				c-2.94-0.988-6.135,0.552-7.099,3.563l-7.549,22.358C36.81,127.039,38,130.262,41,131.25v-0.005c3,0.988,5.812-0.67,6.776-3.68
				L49,122.737v14.646c0,0.317,0.024,0.629,0.06,0.937c-0.035,0.276-0.06,0.555-0.06,0.841v33.094c0,3.573,3.511,6.496,7,6.496
				s7-2.923,7-6.496V145h5v27.254c0,3.573,3.011,6.496,6.5,6.496s6.5-2.923,6.5-6.496V139.16c0-0.286-0.024-0.565-0.06-0.841
				c0.036-0.308,0.06-0.619,0.06-0.937v-14.519l1.614,4.689c0.948,3.016,4.204,4.69,7.149,3.72
				C92.709,130.302,94.414,127.04,93.466,124.024z"/>
			<path style="fill:#CCCCCC;stroke:#000000;stroke-width:2;stroke-miterlimit:10;" d="M153,122.864l1.491,4.689
				c0.948,3.016,4.142,4.69,7.087,3.72c2.946-0.97,4.539-4.232,3.591-7.248l-7.031-22.458c-0.948-3.016-4.121-4.69-7.066-3.72
				c-0.22,0.072-0.424,0.621-0.628,0.718C149.078,97.311,147.288,97,145.32,97h-2.412c7.762-3,13.428-10.161,13.428-18.872
				c0-10.605-8.396-19.432-18.753-19.432s-18.753,8.942-18.753,19.547c0,8.71,5.666,15.757,13.428,18.757h-2.412
				c-1.963,0-3.756,0.308-5.121,1.556c-0.178-0.082-0.361-0.385-0.549-0.448c-2.94-0.988-6.135,0.552-7.099,3.563l-7.426,22.358
				c-0.965,3.01-0.651,6.234,3.349,7.222v-0.005c3,0.988,5.812-0.669,6.776-3.68l1.224-4.829v14.509L113.143,158H121v14.254
				c0,3.573,3.011,6.496,6.5,6.496s6.5-2.923,6.5-6.496V158h5v14.254c0,3.573,3.511,6.496,7,6.496s7-2.923,7-6.496V158h8.841
				l-8.657-19.978c0.003-0.084-0.184-0.554-0.184-0.639V122.864z"/>
		</g>
	</g>
</g>
<g id="Layer_1">
</g>
</svg>
