<?xml version="1.0" encoding="iso-8859-1"?>
<!-- Generator: Adobe Illustrator 18.1.1, SVG Export Plug-In . SVG Version: 6.00 Build 0)  -->
<svg version="1.1" xmlns="http://www.w3.org/2000/svg" xmlns:xlink="http://www.w3.org/1999/xlink" x="0px" y="0px"
	 viewBox="0 0 203 203" style="enable-background:new 0 0 203 203;" xml:space="preserve">
<g id="icon5">
	<g>
		<path style="fill:#FFFFFF;stroke:#000000;stroke-width:3;stroke-miterlimit:10;" d="M181.5,201.5h-160c-11,0-20-9-20-20v-160
			c0-11,9-20,20-20h160c11,0,20,9,20,20v160C201.5,192.5,192.5,201.5,181.5,201.5z"/>
		<g>
			<g>
				<path style="fill:#CCCCCC;stroke:#000000;stroke-width:2;stroke-miterlimit:10;" d="M79.333,116.974l-7.994-25.442
					c-1.074-3.417-4.682-5.313-8.019-4.214c-0.249,0.082-0.487,0.524-0.719,0.634C61.053,86.532,59.018,86,56.789,86h-2.733
					c8.794-3,15.213-11.332,15.213-21.2c0-12.014-9.512-21.925-21.245-21.925S26.78,52.871,26.78,64.885
					C26.78,74.753,33.198,83,41.992,86h-2.733c-2.224,0-4.255,0.528-5.802,1.942c-0.201-0.092-0.408-0.346-0.622-0.418
					c-3.331-1.119-6.95,0.67-8.043,4.081l-8.999,25.352C14.7,120.367,16,124.041,19,125.16v-0.005c4,1.119,7.053-0.758,8.145-4.169
					l1.855-5.47v16.592c0,0.36,0.027,0.712,0.068,1.061c-0.04,0.313-0.068,0.629-0.068,0.953v37.492c0,4.048,3.547,7.359,7.5,7.359
					s7.5-3.312,7.5-7.359V141h6v30.613c0,4.048,3.547,7.359,7.5,7.359s7.5-3.312,7.5-7.359v-37.492c0-0.323-0.028-0.64-0.068-0.953
					c0.041-0.349,0.068-0.702,0.068-1.061V115.66l1.934,5.312c1.074,3.417,4.815,5.313,8.152,4.214
					C78.423,124.086,80.407,120.391,79.333,116.974z"/>
				<path style="fill:#CCCCCC;stroke:#000000;stroke-width:2;stroke-miterlimit:10;" d="M146,115.66l2.078,5.312
					c1.074,3.417,4.887,5.313,8.224,4.214c3.337-1.099,5.24-4.795,4.166-8.211l-7.917-25.442c-1.074-3.417-4.644-5.313-7.981-4.214
					c-0.249,0.082-0.468,0.524-0.7,0.634c-1.548-1.42-3.564-1.952-5.793-1.952h-2.733c8.794-3,15.213-11.332,15.213-21.2
					c0-12.014-9.512-21.925-21.245-21.925s-21.245,9.995-21.245,22.01c0,9.868,6.419,18.115,15.213,21.115h-2.733
					c-2.224,0-4.255,0.528-5.802,1.942c-0.201-0.092-0.408-0.346-0.622-0.418c-3.331-1.119-6.95,0.67-8.043,4.081l-8.644,25.352
					c-1.093,3.411-0.438,7.085,3.562,8.204v-0.005c3,1.119,6.553-0.758,7.645-4.169l1.355-5.47v16.438L101.625,155H110v16.613
					c0,4.048,3.547,7.359,7.5,7.359s7.5-3.312,7.5-7.359V155h6v16.613c0,4.048,3.547,7.359,7.5,7.359s7.5-3.312,7.5-7.359V155
					h10.794l-10.197-22.401c0.004-0.095-0.598-0.396-0.598-0.491V115.66z"/>
			</g>
			<g>
				<path style="fill:#CCCCCC;stroke:#000000;stroke-width:2;stroke-miterlimit:10;" d="M114.907,124.246l-7.056-22.458
					c-0.948-3.016-4.133-4.69-7.079-3.72c-0.22,0.072-0.43,0.51-0.635,0.607C98.771,97.422,96.975,97,95.008,97h-2.412
					c7.762-3,13.428-10.05,13.428-18.761c0-10.605-8.396-19.376-18.753-19.376s-18.753,8.858-18.753,19.464
					c0,8.71,5.666,15.674,13.428,18.674h-2.412c-1.963,0-3.756,0.419-5.121,1.667c-0.178-0.082-0.361-0.329-0.549-0.393
					c-2.94-0.988-6.135,0.58-7.099,3.59l-7.769,22.372c-0.965,3.01,0.005,6.248,3.005,7.236v-0.005c3,0.988,5.812-0.67,6.776-3.68
					L70,122.959v14.646c0,0.317,0.024,0.629,0.06,0.937c-0.035,0.276-0.06,0.555-0.06,0.841v33.094c0,3.573,3.511,6.496,7,6.496
					s7-2.923,7-6.496V145h5v27.476c0,3.573,3.011,6.496,6.5,6.496s6.5-2.923,6.5-6.496v-33.094c0-0.286-0.024-0.565-0.06-0.841
					c0.036-0.308,0.06-0.619,0.06-0.937v-14.519l1.835,4.689c0.948,3.016,4.314,4.69,7.259,3.72
					C114.04,130.524,115.855,127.262,114.907,124.246z"/>
				<path style="fill:#CCCCCC;stroke:#000000;stroke-width:2;stroke-miterlimit:10;" d="M174,123.086l1.712,4.689
					c0.948,3.016,4.252,4.69,7.198,3.72c2.946-0.97,4.594-4.232,3.647-7.248l-7.004-22.458c-0.948-3.016-4.107-4.69-7.052-3.72
					c-0.22,0.072-0.417,0.51-0.621,0.607c-1.367-1.253-3.149-1.675-5.117-1.675h-2.412c7.762-3,13.428-10.05,13.428-18.761
					c0-10.605-8.396-19.376-18.753-19.376c-10.357,0-18.753,8.858-18.753,19.464c0,8.71,5.666,15.674,13.428,18.674h-2.412
					c-1.963,0-3.756,0.419-5.121,1.667c-0.178-0.082-0.361-0.329-0.549-0.393c-2.94-0.988-6.135,0.58-7.099,3.59l-7.646,22.372
					c-0.965,3.01-0.872,6.248,3.128,7.236v-0.005c3,0.988,5.812-0.669,6.776-3.68l1.224-4.829v14.509L134.584,158H142v14.476
					c0,3.573,3.011,6.496,6.5,6.496s6.5-2.923,6.5-6.496V158h5v14.476c0,3.573,3.511,6.496,7,6.496s7-2.923,7-6.496V158h9.282
					l-8.878-19.867c0.003-0.084-0.405-0.443-0.405-0.528V123.086z"/>
			</g>
		</g>
	</g>
</g>
<g id="Layer_1">
</g>
</svg>
